<?xml version="1.0" standalone="no"?>
<!DOCTYPE svg PUBLIC "-//W3C//DTD SVG 20010904//EN"
 "http://www.w3.org/TR/2001/REC-SVG-20010904/DTD/svg10.dtd">
<svg version="1.0" xmlns="http://www.w3.org/2000/svg"
 width="747.000000pt" height="384.000000pt" viewBox="0 0 747.000000 384.000000"
 preserveAspectRatio="xMidYMid meet">
<metadata>
Created by potrace 1.16, written by Peter Selinger 2001-2019
</metadata>
<g transform="translate(0.000000,384.000000) scale(0.100000,-0.100000)"
fill="#000000" stroke="none">
<path d="M5 1920 c0 -1059 1 -1492 2 -963 2 530 2 1396 0 1925 -1 530 -2 97
-2 -962z"/>
<path d="M20 3725 l0 -105 1495 0 1495 0 25 50 c18 35 25 65 25 105 l0 55
-1520 0 -1520 0 0 -105z m3030 50 c0 -29 -9 -64 -25 -95 l-25 -50 -1485 0
-1485 0 0 95 0 95 1510 0 1510 0 0 -45z"/>
<path d="M850 2765 l0 -205 355 0 355 0 0 205 0 205 -355 0 -355 0 0 -205z
m700 0 l0 -195 -345 0 -345 0 0 195 0 195 345 0 345 0 0 -195z"/>
<path d="M3030 2765 l0 -205 480 0 480 0 0 205 0 205 -480 0 -480 0 0 -205z
m950 0 l0 -195 -470 0 -470 0 0 195 0 195 470 0 470 0 0 -195z"/>
<path d="M5810 2765 l0 -205 780 0 780 0 0 205 0 205 -780 0 -780 0 0 -205z
m1550 0 l0 -195 -770 0 -770 0 0 195 0 195 770 0 770 0 0 -195z"/>
<path d="M4448 2763 c248 -2 656 -2 905 0 248 1 45 2 -453 2 -498 0 -701 -1
-452 -2z"/>
<path d="M3512 1503 l-2 -1053 1163 2 1162 3 -1157 2 -1158 3 -3 1048 -2 1047
-3 -1052z"/>
<path d="M6595 1610 c0 -520 1 -732 2 -472 2 259 2 685 0 945 -1 259 -2 47 -2
-473z"/>
<path d="M5840 455 l0 -205 750 0 750 0 0 205 0 205 -750 0 -750 0 0 -205z
m1490 0 l0 -195 -740 0 -740 0 0 195 0 195 740 0 740 0 0 -195z"/>
</g>
</svg>
